<mxfile host="localhost" agent="Mozilla/5.0 (X11; Linux x86_64) AppleWebKit/537.36 (KHTML, like Gecko) Chrome/130.0.0.0 Safari/537.36" version="24.7.5">
  <diagram name="Page-1" id="uv_faZylAFjuLaQtlM34">
    <mxGraphModel dx="810" dy="481" grid="1" gridSize="10" guides="1" tooltips="1" connect="1" arrows="1" fold="1" page="1" pageScale="1" pageWidth="850" pageHeight="1100" math="0" shadow="0">
      <root>
        <mxCell id="0" />
        <mxCell id="1" parent="0" />
        <mxCell id="85dKuO4XK6YsZ1f4LorB-10" value="" style="group;strokeWidth=1;" vertex="1" connectable="0" parent="1">
          <mxGeometry x="160" y="90" width="510" height="310" as="geometry" />
        </mxCell>
        <mxCell id="85dKuO4XK6YsZ1f4LorB-8" value="" style="rounded=1;arcSize=10;dashed=0;fillColor=none;gradientColor=none;strokeWidth=1;strokeColor=#879196;" vertex="1" parent="85dKuO4XK6YsZ1f4LorB-10">
          <mxGeometry y="30" width="510" height="280" as="geometry" />
        </mxCell>
        <mxCell id="85dKuO4XK6YsZ1f4LorB-9" value="" style="dashed=0;html=1;shape=mxgraph.aws3.cloud;fillColor=#F58536;gradientColor=none;dashed=0;" vertex="1" parent="85dKuO4XK6YsZ1f4LorB-10">
          <mxGeometry x="41" width="69" height="40.73" as="geometry" />
        </mxCell>
        <mxCell id="85dKuO4XK6YsZ1f4LorB-2" value="Private subnet" style="points=[[0,0],[0.25,0],[0.5,0],[0.75,0],[1,0],[1,0.25],[1,0.5],[1,0.75],[1,1],[0.75,1],[0.5,1],[0.25,1],[0,1],[0,0.75],[0,0.5],[0,0.25]];outlineConnect=0;gradientColor=none;html=1;whiteSpace=wrap;fontSize=12;fontStyle=0;container=0;pointerEvents=0;collapsible=0;recursiveResize=0;shape=mxgraph.aws4.group;grIcon=mxgraph.aws4.group_security_group;grStroke=0;strokeColor=#00A4A6;fillColor=#E6F6F7;verticalAlign=top;align=left;spacingLeft=30;fontColor=#147EBA;dashed=0;" vertex="1" parent="1">
          <mxGeometry x="200" y="190" width="155" height="180" as="geometry" />
        </mxCell>
        <mxCell id="85dKuO4XK6YsZ1f4LorB-1" value="VPC" style="sketch=0;outlineConnect=0;gradientColor=none;html=1;whiteSpace=wrap;fontSize=12;fontStyle=0;shape=mxgraph.aws4.group;grIcon=mxgraph.aws4.group_vpc;strokeColor=#879196;fillColor=none;verticalAlign=top;align=left;spacingLeft=30;fontColor=#879196;dashed=0;" vertex="1" parent="1">
          <mxGeometry x="187.5" y="160" width="262.5" height="220" as="geometry" />
        </mxCell>
        <mxCell id="85dKuO4XK6YsZ1f4LorB-5" style="edgeStyle=orthogonalEdgeStyle;rounded=0;orthogonalLoop=1;jettySize=auto;html=1;startArrow=classic;startFill=1;" edge="1" parent="1" source="85dKuO4XK6YsZ1f4LorB-3" target="85dKuO4XK6YsZ1f4LorB-4">
          <mxGeometry relative="1" as="geometry" />
        </mxCell>
        <mxCell id="85dKuO4XK6YsZ1f4LorB-3" value="Lambda Function&lt;br&gt;(Read Only)" style="outlineConnect=0;dashed=0;verticalLabelPosition=bottom;verticalAlign=top;align=center;html=1;shape=mxgraph.aws3.lambda_function;fillColor=#F58534;gradientColor=none;" vertex="1" parent="1">
          <mxGeometry x="243" y="244" width="69" height="72" as="geometry" />
        </mxCell>
        <mxCell id="85dKuO4XK6YsZ1f4LorB-7" style="edgeStyle=orthogonalEdgeStyle;rounded=0;orthogonalLoop=1;jettySize=auto;html=1;startArrow=classic;startFill=1;" edge="1" parent="1" source="85dKuO4XK6YsZ1f4LorB-4" target="85dKuO4XK6YsZ1f4LorB-6">
          <mxGeometry relative="1" as="geometry" />
        </mxCell>
        <mxCell id="85dKuO4XK6YsZ1f4LorB-4" value="Gateway Endpoint" style="sketch=0;outlineConnect=0;fontColor=#232F3E;gradientColor=none;fillColor=#8C4FFF;strokeColor=none;dashed=0;verticalLabelPosition=bottom;verticalAlign=top;align=center;html=1;fontSize=12;fontStyle=0;aspect=fixed;pointerEvents=1;shape=mxgraph.aws4.endpoints;" vertex="1" parent="1">
          <mxGeometry x="420" y="251" width="58" height="58" as="geometry" />
        </mxCell>
        <mxCell id="85dKuO4XK6YsZ1f4LorB-6" value="S3 Bucket" style="sketch=0;points=[[0,0,0],[0.25,0,0],[0.5,0,0],[0.75,0,0],[1,0,0],[0,1,0],[0.25,1,0],[0.5,1,0],[0.75,1,0],[1,1,0],[0,0.25,0],[0,0.5,0],[0,0.75,0],[1,0.25,0],[1,0.5,0],[1,0.75,0]];outlineConnect=0;fontColor=#232F3E;fillColor=#7AA116;strokeColor=#ffffff;dashed=0;verticalLabelPosition=bottom;verticalAlign=top;align=center;html=1;fontSize=12;fontStyle=0;aspect=fixed;shape=mxgraph.aws4.resourceIcon;resIcon=mxgraph.aws4.s3;" vertex="1" parent="1">
          <mxGeometry x="580" y="251" width="58" height="58" as="geometry" />
        </mxCell>
      </root>
    </mxGraphModel>
  </diagram>
</mxfile>
